<?xml version="1.0" encoding="UTF-8"?>
<svg version="1.1" xmlns="http://www.w3.org/2000/svg" width="500" height="500">
<path d="M0 0 C2.19064057 0.01079242 4.3812835 0.02055545 6.57192993 0.03007507 C14.12745051 0.06435998 21.68220022 0.12256862 29.23718262 0.22068787 C31.42195136 0.24716265 33.60680205 0.26770602 35.79168701 0.28160095 C51.39369314 0.39257943 67.99229839 0.76038498 81.2640686 10.01115417 C82.14320923 10.58736511 83.02234985 11.16357605 83.9281311 11.75724792 C100.06767443 22.80594356 110.2314879 38.96763676 114.2640686 58.01115417 C114.67295898 61.81491499 114.7416311 65.56277027 114.7015686 69.38615417 C114.69544556 70.38985046 114.68932251 71.39354675 114.68301392 72.42765808 C114.51809575 80.2764942 113.36890441 86.74863167 110.2640686 94.01115417 C109.96371704 94.80006042 109.66336548 95.58896667 109.35391235 96.40177917 C105.773087 105.26858482 100.53863128 113.75164676 93.2640686 120.01115417 C92.6040686 120.01115417 91.9440686 120.01115417 91.2640686 120.01115417 C91.2640686 120.67115417 91.2640686 121.33115417 91.2640686 122.01115417 C75.49275457 135.59295823 55.61715781 138.63438442 35.57119751 138.54460144 C33.87539427 138.55168267 32.17959734 138.5604368 30.48381042 138.57070923 C25.9319276 138.5929672 21.38039633 138.59031936 16.82848024 138.58138776 C13.00447467 138.57623042 9.18053245 138.58360856 5.35653341 138.59085983 C-3.67662464 138.60778426 -12.70961347 138.60436905 -21.74276733 138.58757019 C-31.00930967 138.57065827 -40.27538055 138.58648772 -49.54187143 138.61879307 C-57.5475755 138.64562814 -65.55313408 138.65272762 -73.55887854 138.64427799 C-78.31848666 138.63938889 -83.07781162 138.64134336 -87.83738327 138.66206551 C-92.31769675 138.68064313 -96.79734112 138.67419966 -101.27762032 138.6498661 C-102.90478381 138.64492719 -104.53200032 138.64816335 -106.15912056 138.66101456 C-128.33953185 138.82209748 -147.63420855 132.63516448 -163.7359314 117.01115417 C-163.7359314 116.35115417 -163.7359314 115.69115417 -163.7359314 115.01115417 C-164.3959314 115.01115417 -165.0559314 115.01115417 -165.7359314 115.01115417 C-179.34909507 98.6485338 -183.50101826 78.84222237 -181.7359314 58.01115417 C-178.5286242 39.00314242 -167.09777768 23.17374144 -151.7359314 12.01115417 C-150.3437439 10.92834167 -150.3437439 10.92834167 -148.9234314 9.82365417 C-134.31865798 1.51897909 -119.29188373 0.65820006 -102.9234314 0.38615417 C-101.96985748 0.36780518 -101.01628357 0.34945618 -100.03381348 0.33055115 C-66.69618756 -0.30193122 -33.34156456 -0.16767442 0 0 Z M-111.7359314 56.01115417 C-112.3959314 56.67115417 -113.0559314 57.33115417 -113.7359314 58.01115417 C-116.46279291 65.58576948 -116.60835869 72.33850042 -113.8374939 79.83537292 C-111.22093621 85.00353829 -107.1694677 88.67053979 -101.8609314 90.94865417 C-95.2178839 92.9798937 -89.82771858 92.80299991 -83.4859314 89.88615417 C-77.07994089 86.34051292 -73.54398563 82.00051157 -71.2437439 75.00724792 C-69.48473608 68.09299414 -71.27490221 62.06068419 -74.7359314 56.01115417 C-80.08572628 49.69816412 -85.41382773 47.42942227 -93.6109314 46.63615417 C-101.04771967 46.85275966 -106.94760902 50.49732841 -111.7359314 56.01115417 Z M8.2640686 55.01115417 C4.73819703 60.15915197 2.86146966 65.75074055 3.2640686 72.01115417 C4.67758952 78.6881806 6.90695071 83.78110599 12.48672485 87.86271667 C13.36651001 88.43119324 13.36651001 88.43119324 14.2640686 89.01115417 C15.1921936 89.62990417 16.1203186 90.24865417 17.0765686 90.88615417 C23.44181948 93.13271331 30.17918096 92.79944558 36.3812561 90.11271667 C41.9573499 86.85035474 45.90866608 82.2959275 47.83047485 76.11271667 C49.22192566 69.36856774 48.62508561 63.08224024 45.2640686 57.01115417 C42.86823209 54.1978404 42.86823209 54.1978404 40.2640686 52.01115417 C39.8103186 51.45427917 39.3565686 50.89740417 38.8890686 50.32365417 C34.85891749 47.06853212 29.33638972 46.60550691 24.30703735 46.76115417 C17.83971741 47.55256618 12.80993407 50.36197359 8.2640686 55.01115417 Z " fill="#1C1C1C" transform="translate(283.7359313964844,205.9888458251953)"/>
<path d="M0 0 C1.73505876 -0.00436042 3.47011561 -0.00954793 5.20516968 -0.01548767 C9.8685945 -0.02874614 14.53193763 -0.02947118 19.19537759 -0.02692437 C23.11127329 -0.02584564 27.02715307 -0.03076088 30.94304532 -0.03552979 C40.19332518 -0.04657955 49.44356441 -0.04708807 58.69384766 -0.04101562 C68.18576349 -0.03497967 77.67753095 -0.04728776 87.16942149 -0.06858569 C95.36616108 -0.08629039 103.56285382 -0.09218916 111.75961179 -0.08894795 C116.63430559 -0.087149 121.50889352 -0.08963059 126.38356972 -0.10366249 C130.97287586 -0.11638172 135.5619533 -0.11416594 140.15125656 -0.1012516 C141.81873724 -0.09891657 143.48623474 -0.10150746 145.15369606 -0.10987473 C175.23097237 -0.24971496 202.7068118 7.70364919 226.0534668 27.2746582 C226.92229492 27.99266602 227.79112305 28.71067383 228.6862793 29.45043945 C234.91526445 34.81270037 240.07119799 40.75292431 245.0534668 47.2746582 C245.65932617 48.04165039 246.26518555 48.80864258 246.8894043 49.59887695 C264.32425608 72.83219754 271.36651184 105.26691199 267.5065918 133.7434082 C263.65629801 157.83452166 253.55811035 179.45804883 237.0534668 197.2746582 C236.60068359 197.76595215 236.14790039 198.25724609 235.68139648 198.76342773 C226.61331642 208.48856768 216.83129012 216.36171184 204.74487305 221.9855957 C202.04153293 223.22495256 202.04153293 223.22495256 199.57299805 224.78637695 C183.19412401 234.46133975 162.20557943 235.60683359 143.6784668 235.63793945 C142.96476803 235.639671 142.25106926 235.64140255 141.51574326 235.64318657 C134.85919594 235.65210815 128.20324945 235.61150772 121.54711914 235.5390625 C98.75766951 234.85984838 98.75766951 234.85984838 78.0534668 243.2746582 C76.50568804 244.01460636 74.94583467 244.73095807 73.3659668 245.3996582 C72.67889648 245.70258789 71.99182617 246.00551758 71.28393555 246.31762695 C68.59169534 247.47279132 65.8856743 248.59253205 63.1784668 249.7121582 C57.40782756 252.10379195 51.7264445 254.66135517 46.0534668 257.2746582 C31.43676692 263.95996884 31.43676692 263.95996884 25.93237305 266.09887695 C20.44364658 268.23488381 15.11802792 270.61956488 9.79345703 273.13598633 C2.94199022 276.35704151 -3.96871352 279.44355221 -10.8840332 282.5246582 C-12.04539795 283.04415039 -13.2067627 283.56364258 -14.40332031 284.09887695 C-20.19616061 286.67403003 -25.97799612 289.13623755 -31.9465332 291.2746582 C-32.9465332 290.2746582 -32.9465332 290.2746582 -33.06678772 287.95249939 C-33.06456711 286.92435623 -33.0623465 285.89621307 -33.06005859 284.83691406 C-33.0599453 283.09522194 -33.0599453 283.09522194 -33.05982971 281.31834412 C-33.05466843 280.0548262 -33.04950714 278.79130829 -33.04418945 277.48950195 C-33.04277451 276.2035463 -33.04135956 274.91759064 -33.03990173 273.59266663 C-33.03607738 270.16822378 -33.02624782 266.74382311 -33.01519775 263.31939697 C-33.00498185 259.82727631 -33.00040373 256.33514886 -32.99536133 252.84301758 C-32.98462547 245.98688042 -32.96755004 239.13077133 -32.9465332 232.2746582 C-34.0673378 232.08127617 -34.0673378 232.08127617 -35.21078491 231.88398743 C-36.68752182 231.62357918 -36.68752182 231.62357918 -38.1940918 231.35791016 C-39.65520889 231.10265312 -39.65520889 231.10265312 -41.14584351 230.84223938 C-50.59112617 228.92808064 -59.77730428 224.27683099 -67.9465332 219.2746582 C-68.7818457 218.79770508 -69.6171582 218.32075195 -70.4777832 217.8293457 C-78.06464839 213.316469 -84.25403054 207.72691457 -90.5559082 201.61401367 C-91.68791156 200.52374499 -92.84500177 199.45957024 -94.0090332 198.40356445 C-99.65946424 193.15860416 -103.7256003 186.66976975 -107.9465332 180.2746582 C-108.44411133 179.53860352 -108.94168945 178.80254883 -109.4543457 178.04418945 C-125.7633783 153.17035043 -129.38508693 120.98429004 -123.53979492 92.27709961 C-119.52139616 74.49023379 -112.23043425 58.74864902 -101.0715332 44.3996582 C-100.59506348 43.78614502 -100.11859375 43.17263184 -99.62768555 42.54052734 C-98.45207351 41.07575777 -97.20508454 39.66881103 -95.9465332 38.2746582 C-95.2865332 38.2746582 -94.6265332 38.2746582 -93.9465332 38.2746582 C-93.2865332 36.9546582 -92.6265332 35.6346582 -91.9465332 34.2746582 C-91.2865332 34.2746582 -90.6265332 34.2746582 -89.9465332 34.2746582 C-89.73641602 33.71262695 -89.52629883 33.1505957 -89.30981445 32.5715332 C-87.47970328 29.48813673 -84.96313409 27.63349689 -82.1340332 25.5246582 C-81.5579834 25.09000244 -80.98193359 24.65534668 -80.38842773 24.20751953 C-68.76694782 15.57428486 -56.60544927 8.86882331 -42.7590332 4.5871582 C-42.12513672 4.38453369 -41.49124023 4.18190918 -40.83813477 3.97314453 C-27.59018986 0.09107559 -13.68314637 -0.0231014 0 0 Z M-32.3215332 32.4621582 C-33.06282471 32.68282959 -33.80411621 32.90350098 -34.56787109 33.13085938 C-51.15474875 38.28062139 -67.63836891 49.11560794 -77.9465332 63.2746582 C-77.9465332 63.9346582 -77.9465332 64.5946582 -77.9465332 65.2746582 C-78.6065332 65.2746582 -79.2665332 65.2746582 -79.9465332 65.2746582 C-81.96357131 68.93222064 -83.96015978 72.60035663 -85.9465332 76.2746582 C-86.32551758 76.96430664 -86.70450195 77.65395508 -87.0949707 78.36450195 C-98.20354943 99.38193291 -98.14886403 123.19944516 -92.0324707 145.6262207 C-85.83283278 165.53562705 -70.55171897 183.35944303 -52.9465332 194.2746582 C-48.69466599 196.49105707 -44.37061928 198.42984322 -39.9465332 200.2746582 C-39.23883789 200.59305664 -38.53114258 200.91145508 -37.80200195 201.23950195 C-26.39332635 206.0671731 -13.52504037 205.56579611 -1.36889648 205.53344727 C0.36235704 205.5361635 2.0936094 205.53972795 3.82485962 205.54406738 C8.49026669 205.55311988 13.15558448 205.54967647 17.82099295 205.54330921 C22.72800513 205.53821037 27.63501018 205.54295154 32.54202271 205.54608154 C40.78136554 205.54971062 49.02067241 205.54495066 57.26000977 205.53540039 C66.75134603 205.52452514 76.24259629 205.52803897 85.73393047 205.5390532 C93.91695697 205.54816498 102.09995777 205.5493922 110.28298771 205.54417586 C115.15533615 205.54107654 120.02764432 205.54059007 124.89999008 205.54724884 C129.48510331 205.55307832 134.07010704 205.54892429 138.65520859 205.53746033 C140.32597676 205.5348431 141.99675434 205.53552771 143.66751862 205.53998566 C163.23287289 205.58732765 180.35168497 203.48871172 197.0534668 192.2746582 C197.94807617 191.67782227 198.84268555 191.08098633 199.7644043 190.46606445 C214.2752042 180.36540962 224.89031376 167.40501764 232.0534668 151.2746582 C232.42213867 150.5115332 232.79081055 149.7484082 233.1706543 148.9621582 C241.64730035 130.15266624 239.70707065 104.64498319 232.8659668 85.4621582 C227.68392165 73.2220753 220.2756085 63.65432096 211.0534668 54.2746582 C210.32643555 53.50250977 209.5994043 52.73036133 208.8503418 51.93481445 C207.21636789 50.04845433 207.21636789 50.04845433 205.0534668 50.2746582 C205.0534668 49.6146582 205.0534668 48.9546582 205.0534668 48.2746582 C199.79632006 44.29627689 193.85676703 41.36863671 188.0534668 38.2746582 C187.40635742 37.90083008 186.75924805 37.52700195 186.0925293 37.1418457 C177.07633415 32.14159774 166.87861997 30.10144736 156.67114258 29.66967773 C155.40528163 29.61201076 155.40528163 29.61201076 154.11384773 29.55317879 C140.52932071 29.01416205 126.92193017 29.12908558 113.32899237 29.1403327 C109.23488141 29.14290477 105.14077244 29.1405056 101.04666138 29.13894653 C94.17994782 29.13713916 87.3132451 29.13949364 80.4465332 29.14428711 C72.55756414 29.1497313 64.66862092 29.1479601 56.77965248 29.1424607 C49.94929819 29.13789364 43.11895159 29.13729634 36.28859627 29.13989937 C32.23395689 29.14144196 28.17932957 29.14171225 24.12469101 29.13836288 C-4.44312246 28.03015979 -4.44312246 28.03015979 -32.3215332 32.4621582 Z " fill="#212121" transform="translate(178.946533203125,157.725341796875)"/>
<path d="M0 0 C2.28898894 1.54287987 4.03121355 3.03121355 6 5 C6 5.66 6 6.32 6 7 C6.99 7.33 7.98 7.66 9 8 C15.47760117 16.43191394 16.29267915 25.76339181 15.31152344 35.97509766 C13.84639044 45.49846215 7.32069008 51.41315757 0 57 C-0.99 57.66 -1.98 58.32 -3 59 C-3.3259363 61.46400964 -3.46486148 63.69071634 -3.4765625 66.16015625 C-3.49993179 67.21776405 -3.49993179 67.21776405 -3.52377319 68.29673767 C-3.57136829 70.55198046 -3.59908198 72.80691258 -3.625 75.0625 C-3.66144611 77.32143959 -3.7020228 79.58020132 -3.74765015 81.838974 C-3.7749507 83.24557628 -3.79626974 84.6523092 -3.81118774 86.05909729 C-3.88935558 90.88935558 -3.88935558 90.88935558 -5 92 C-6.84159023 92.09959621 -8.68696967 92.13080411 -10.53125 92.1328125 C-11.65144531 92.13410156 -12.77164063 92.13539063 -13.92578125 92.13671875 C-15.10527344 92.13285156 -16.28476562 92.12898438 -17.5 92.125 C-19.26923828 92.13080078 -19.26923828 92.13080078 -21.07421875 92.13671875 C-22.19441406 92.13542969 -23.31460937 92.13414062 -24.46875 92.1328125 C-25.50451172 92.13168457 -26.54027344 92.13055664 -27.60742188 92.12939453 C-30 92 -30 92 -31 91 C-31.07311749 88.68202406 -31.08429064 86.36205548 -31.0703125 84.04296875 C-31.07889905 82.60610769 -31.08937584 81.16925691 -31.1015625 79.73242188 C-31.11825228 77.46040247 -31.12503545 75.19066728 -31.09960938 72.91870117 C-31.07862152 70.72952517 -31.10189137 68.5444494 -31.1328125 66.35546875 C-31.13168457 65.04215576 -31.13055664 63.72884277 -31.12939453 62.37573242 C-31.64084046 59.03231806 -31.64084046 59.03231806 -33.6161499 57.65542603 C-35.75922731 56.37862992 -35.75922731 56.37862992 -39 55 C-39 54.34 -39 53.68 -39 53 C-39.8353125 52.7215625 -39.8353125 52.7215625 -40.6875 52.4375 C-46.41863595 48.87490198 -48.8445554 42.87570271 -50.4921875 36.59765625 C-52.19500035 27.8871136 -50.93495152 19.97483508 -47 12 C-35.96172556 -3.24831839 -17.36510582 -10.05688624 0 0 Z " fill="#202020" transform="translate(280,55)"/>
<path d="M0 0 C0 0.33 0 0.66 0 1 C-0.89360702 1.00331015 -1.78721403 1.00662029 -2.70790005 1.01003075 C-24.46705219 1.09130647 -46.22613508 1.18341397 -67.98519039 1.28752708 C-78.5077717 1.33761544 -89.03034536 1.3840588 -99.55297852 1.421875 C-108.72617322 1.45485089 -117.89930795 1.49471302 -127.07243639 1.54279006 C-131.92800252 1.56799939 -136.78352915 1.58979707 -141.63914299 1.60334396 C-146.21342506 1.61621488 -150.78757128 1.63832323 -155.36177826 1.66738319 C-157.03665507 1.67641974 -158.71155373 1.68214 -160.38645363 1.68421364 C-170.43227771 1.58959919 -170.43227771 1.58959919 -180.31788635 3.14492798 C-184.25487581 4.05918806 -184.75229769 3.93306293 -188 2 C-178.13850224 -0.34843559 -168.26261033 -0.45755031 -158.1875 -0.625 C-157.23392609 -0.643349 -156.28035217 -0.661698 -155.29788208 -0.68060303 C-103.54884714 -1.66238716 -51.73855794 -1.30930797 0 0 Z " fill="#737373" transform="translate(339,207)"/>
<path d="M0 0 C1.32 0 2.64 0 4 0 C4.33 19.14 4.66 38.28 5 58 C5.66 58.33 6.32 58.66 7 59 C5.515 59.495 5.515 59.495 4 60 C3 59 3 59 2.87974548 56.67784119 C2.88196609 55.64969803 2.88418671 54.62155487 2.88647461 53.56225586 C2.88658791 51.82056374 2.88658791 51.82056374 2.88670349 50.04368591 C2.89186478 48.780168 2.89702606 47.51665009 2.90234375 46.21484375 C2.9037587 44.92888809 2.90517365 43.64293243 2.90663147 42.31800842 C2.91045582 38.89356557 2.92028538 35.46916491 2.93133545 32.04473877 C2.94155136 28.55261811 2.94612947 25.06049066 2.95117188 21.56835938 C2.96190773 14.71222222 2.97898316 7.85611313 3 1 C2.01 0.67 1.02 0.34 0 0 Z " fill="#565656" transform="translate(143,389)"/>
<path d="M0 0 C1.82877114 0.01005087 3.65754762 0.01917299 5.48632812 0.02734375 C9.92851956 0.04918811 14.37044953 0.08360158 18.8125 0.125 C18.8125 0.455 18.8125 0.785 18.8125 1.125 C17.7387915 1.14481934 16.66508301 1.16463867 15.55883789 1.18505859 C11.53859771 1.26168444 7.51869288 1.35030932 3.4987793 1.44238281 C1.76577421 1.48043894 0.03269639 1.51533058 -1.70043945 1.546875 C-4.20550362 1.593038 -6.71007707 1.65094178 -9.21484375 1.7109375 C-10.35916115 1.72826431 -10.35916115 1.72826431 -11.52659607 1.74594116 C-16.30259412 1.87416591 -20.54845885 2.5661589 -25.14356995 3.89736938 C-27.72865657 4.18526811 -28.99850534 3.45119874 -31.1875 2.125 C-20.88960432 -0.50393466 -10.53711213 -0.10118071 0 0 Z " fill="#7C7C7C" transform="translate(182.1875,206.875)"/>
<path d="M0 0 C1.98 0.99 3.96 1.98 6 3 C5.67 2.01 5.34 1.02 5 0 C5.66 0 6.32 0 7 0 C7.33 0.99 7.66 1.98 8 3 C3.25 7 3.25 7 1 7 C1 6.34 1 5.68 1 5 C0.01 4.67 -0.98 4.34 -2 4 C-1 1 -1 1 0 0 Z " fill="#3C3C3C" transform="translate(390,368)"/>
<path d="M0 0 C0.33 0.33 0.66 0.66 1 1 C2.34747084 1.23075082 3.70377565 1.41153063 5.0625 1.5625 C6.361875 1.706875 7.66125 1.85125 9 2 C9 2.33 9 2.66 9 3 C4.38 3.66 -0.24 4.32 -5 5 C-5.33 3.35 -5.66 1.7 -6 0 C-3.49749232 -1.25125384 -2.59701335 -0.83774624 0 0 Z " fill="#484848" transform="translate(305,250)"/>
<path d="M0 0 C1.4606285 2.64738916 2 3.89448334 2 7 C-1.76624671 8.25541557 -3.37188934 7.37061958 -7 6 C-6.21625 5.38125 -5.4325 4.7625 -4.625 4.125 C-2.03162353 2.10141339 -2.03162353 2.10141339 0 0 Z " fill="#353535" transform="translate(325,291)"/>
<path d="M0 0 C0.98120464 3.05263664 0.98120464 4.94736336 0 8 C-0.66 8 -1.32 8 -2 8 C-2.33 9.98 -2.66 11.96 -3 14 C-3.66 14 -4.32 14 -5 14 C-5.33 14.66 -5.66 15.32 -6 16 C-5.25886305 10.25618868 -2.56405843 5.12811685 0 0 Z " fill="#626262" transform="translate(66,221)"/>
<path d="M0 0 C5 2 5 2 10 4 C8.4375 5.125 8.4375 5.125 6 6 C2.25 5.125 2.25 5.125 -1 4 C-0.67 2.68 -0.34 1.36 0 0 Z " fill="#4D4D4D" transform="translate(129,353)"/>
<path d="M0 0 C1.3357457 3.77371512 0.72408671 6.85831347 0.0625 10.75 C-0.13214844 11.92046875 -0.32679687 13.0909375 -0.52734375 14.296875 C-0.68332031 15.18890625 -0.83929688 16.0809375 -1 17 C-1.33 17 -1.66 17 -2 17 C-2.19532961 15.2300132 -2.38098882 13.45895721 -2.5625 11.6875 C-2.66691406 10.70136719 -2.77132812 9.71523438 -2.87890625 8.69921875 C-3 6 -3 6 -2 3 C-1.34 3 -0.68 3 0 3 C0 2.01 0 1.02 0 0 Z " fill="#777777" transform="translate(85,250)"/>
<path d="M0 0 C0.66 0.33 1.32 0.66 2 1 C2 3.64 2 6.28 2 9 C-2.875 4.25 -2.875 4.25 -4 2 C-2.125 0.9375 -2.125 0.9375 0 0 Z " fill="#474747" transform="translate(400,216)"/>
<path d="M0 0 C0.66 0.99 1.32 1.98 2 3 C-0.64 5.31 -3.28 7.62 -6 10 C-6 6.41087588 -5.33563446 5.89142971 -3 3.3125 C-2.443125 2.68988281 -1.88625 2.06726562 -1.3125 1.42578125 C-0.879375 0.95527344 -0.44625 0.48476563 0 0 Z " fill="#565656" transform="translate(240,59)"/>
<path d="M0 0 C1.98 0.99 3.96 1.98 6 3 C3.01353231 4.99097846 0.40312738 5.94124926 -3 7 C-2.67 5.68 -2.34 4.36 -2 3 C-1.34 3 -0.68 3 0 3 C0 2.01 0 1.02 0 0 Z " fill="#424242" transform="translate(260,393)"/>
<path d="M0 0 C-0.33 1.32 -0.66 2.64 -1 4 C-1.66 3.67 -2.32 3.34 -3 3 C-5.0374763 2.77141886 -7.08040303 2.58975722 -9.125 2.4375 C-10.76855469 2.31181641 -10.76855469 2.31181641 -12.4453125 2.18359375 C-13.28835938 2.12300781 -14.13140625 2.06242187 -15 2 C-15 1.67 -15 1.34 -15 1 C-9.92928099 0.28832014 -5.11791642 -0.10662326 0 0 Z " fill="#6A6A6A" transform="translate(353,361)"/>
<path d="M0 0 C0.66 1.32 1.32 2.64 2 4 C1.34 4.66 0.68 5.32 0 6 C-0.33 5.67 -0.66 5.34 -1 5 C-1.33 6.65 -1.66 8.3 -2 10 C-3.32 10 -4.64 10 -6 10 C-4.34832443 6.4213696 -2.21713508 3.25179812 0 0 Z " fill="#666666" transform="translate(403,322)"/>
<path d="M0 0 C2.97 0.495 2.97 0.495 6 1 C5.67 3.31 5.34 5.62 5 8 C2.74754119 5.31158141 1.11786042 3.35358125 0 0 Z " fill="#3C3C3C" transform="translate(326,259)"/>
<path d="M0 0 C3.93673644 1.31224548 6.22719294 2.91910327 9 6 C6.69 5.67 4.38 5.34 2 5 C1.34 3.35 0.68 1.7 0 0 Z " fill="#5F5F5F" transform="translate(276,54)"/>
<path d="M0 0 C3.82097239 0.53069061 6.06171403 1.49701566 9 4 C8.67 4.99 8.34 5.98 8 7 C6.68 6.34 5.36 5.68 4 5 C4 4.01 4 3.02 4 2 C3.01 2.33 2.02 2.66 1 3 C0.67 2.01 0.34 1.02 0 0 Z " fill="#4A4A4A" transform="translate(359,214)"/>
<path d="M0 0 C1 2 1 2 1 5 C-0.3125 6.6875 -0.3125 6.6875 -2 8 C-2.99 8 -3.98 8 -5 8 C-3.62845496 5.04590299 -2.01136276 2.55991624 0 0 Z " fill="#5E5E5E" transform="translate(80,200)"/>
<path d="M0 0 C0.66 1.32 1.32 2.64 2 4 C1.01 4.495 1.01 4.495 0 5 C0 5.66 0 6.32 0 7 C-0.66 6.67 -1.32 6.34 -2 6 C-2.99 6.66 -3.98 7.32 -5 8 C-5.66 7.67 -6.32 7.34 -7 7 C-4.69 4.69 -2.38 2.38 0 0 Z " fill="#5B5B5B" transform="translate(396,332)"/>
<path d="M0 0 C0.33 0.99 0.66 1.98 1 3 C-0.9375 5.6875 -0.9375 5.6875 -3 8 C-3 6.68 -3 5.36 -3 4 C-3.66 4 -4.32 4 -5 4 C-4.67 3.01 -4.34 2.02 -4 1 C-1.9375 0.3125 -1.9375 0.3125 0 0 Z " fill="#565656" transform="translate(293,93)"/>
<path d="M0 0 C0.99 0.33 1.98 0.66 3 1 C3 1.66 3 2.32 3 3 C-3.625 6.125 -3.625 6.125 -7 5 C-6.34 5 -5.68 5 -5 5 C-5 4.34 -5 3.68 -5 3 C-3.68 3 -2.36 3 -1 3 C-0.67 2.01 -0.34 1.02 0 0 Z " fill="#666666" transform="translate(247,401)"/>
<path d="M0 0 C-0.21484375 1.890625 -0.21484375 1.890625 -1 4 C-3.06640625 5.046875 -3.06640625 5.046875 -5.5625 5.75 C-6.80193359 6.11351562 -6.80193359 6.11351562 -8.06640625 6.484375 C-9.02353516 6.73960937 -9.02353516 6.73960937 -10 7 C-3.24137931 0 -3.24137931 0 0 0 Z " fill="#6A6A6A" transform="translate(385,344)"/>
<path d="M0 0 C-0.33 1.65 -0.66 3.3 -1 5 C-1.99 4.67 -2.98 4.34 -4 4 C-6.63804589 4.39397335 -6.63804589 4.39397335 -9 5 C-6.45523312 2.20075644 -3.92372883 0 0 0 Z " fill="#6A6A6A" transform="translate(375,351)"/>
<path d="M0 0 C0.33 0 0.66 0 1 0 C1.25028811 1.58013217 1.47440946 3.16442306 1.6875 4.75 C1.87892578 6.07257813 1.87892578 6.07257813 2.07421875 7.421875 C1.98397191 10.55676517 1.07384637 11.71823587 -1 14 C-1.08333357 9.1666528 -0.95261487 4.76307437 0 0 Z " fill="#7D7D7D" transform="translate(416,285)"/>
<path d="M0 0 C1.5625 1.5625 1.5625 1.5625 3 4 C2.6875 7.75 2.6875 7.75 2 11 C0.03061395 8.04592092 -0.56901423 6.44788617 -1 3 C-0.67 2.01 -0.34 1.02 0 0 Z " fill="#575757" transform="translate(394,284)"/>
<path d="M0 0 C0 3.90838866 -1.50567876 5.11594107 -4 8 C-5.32 7.67 -6.64 7.34 -8 7 C-5.36 4.69 -2.72 2.38 0 0 Z " fill="#808080" transform="translate(97,183)"/>
<path d="M0 0 C0.66 0 1.32 0 2 0 C2.33 0.99 2.66 1.98 3 3 C3.33 2.01 3.66 1.02 4 0 C4 1.32 4 2.64 4 4 C3.01 4 2.02 4 1 4 C0.34 5.32 -0.32 6.64 -1 8 C-1.125 2.25 -1.125 2.25 0 0 Z " fill="#141414" transform="translate(81,249)"/>
<path d="M0 0 C0 2 0 2 -1.875 4 C-2.57625 4.66 -3.2775 5.32 -4 6 C-4.66 6.66 -5.32 7.32 -6 8 C-6.66 8 -7.32 8 -8 8 C-6.48291727 4.46014029 -4.24676932 0 0 0 Z " fill="#6E6E6E" transform="translate(127,223)"/>
<path d="M0 0 C0.66 0.33 1.32 0.66 2 1 C0.68 1.33 -0.64 1.66 -2 2 C-2 3.32 -2 4.64 -2 6 C-3.65 5.67 -5.3 5.34 -7 5 C-4.63707344 2.47411298 -3.33537489 1.11179163 0 0 Z " fill="#676767" transform="translate(120,169)"/>
<path d="M0 0 C-0.33 0.99 -0.66 1.98 -1 3 C-3.31 2.67 -5.62 2.34 -8 2 C-5.14066998 -0.85933002 -3.8625627 -1.2875209 0 0 Z M-5 3 C-3 4 -3 4 -3 4 Z " fill="#595959" transform="translate(141,163)"/>
<path d="M0 0 C-0.99 0 -1.98 0 -3 0 C-3 0.66 -3 1.32 -3 2 C-5.31 2.33 -7.62 2.66 -10 3 C-6.81859267 -0.48439851 -4.56758339 -1.41752588 0 0 Z " fill="#6C6C6C" transform="translate(255,53)"/>
<path d="M0 0 C0.33 0 0.66 0 1 0 C1.04898438 0.71027344 1.09796875 1.42054688 1.1484375 2.15234375 C1.22320312 3.07144531 1.29796875 3.99054688 1.375 4.9375 C1.44460937 5.85402344 1.51421875 6.77054687 1.5859375 7.71484375 C1.72257813 8.46894531 1.85921875 9.22304688 2 10 C2.66 10.33 3.32 10.66 4 11 C3.01 11.33 2.02 11.66 1 12 C0 11 0 11 -0.09765625 8.49609375 C-0.08605469 7.48675781 -0.07445312 6.47742188 -0.0625 5.4375 C-0.05347656 4.42558594 -0.04445312 3.41367187 -0.03515625 2.37109375 C-0.02355469 1.58863281 -0.01195312 0.80617188 0 0 Z " fill="#636363" transform="translate(146,437)"/>
<path d="M0 0 C-3.1749094 1.9078584 -5.10585211 2.1609041 -8.75 1.625 C-9.54921875 1.51414062 -10.3484375 1.40328125 -11.171875 1.2890625 C-11.77515625 1.19367188 -12.3784375 1.09828125 -13 1 C-13 0.67 -13 0.34 -13 0 C-11.58456585 -0.19658808 -10.16755969 -0.38187546 -8.75 -0.5625 C-7.96109375 -0.66691406 -7.1721875 -0.77132813 -6.359375 -0.87890625 C-3.99467126 -1.00027349 -2.2488963 -0.69633257 0 0 Z " fill="#565656" transform="translate(318,298)"/>
<path d="M0 0 C1.9375 0.3125 1.9375 0.3125 4 1 C5.09658936 4.28976808 4.79953138 5.71303767 4 9 C2.47700477 6.06279492 1.19899698 3.0831351 0 0 Z " fill="#515151" transform="translate(209,263)"/>
<path d="M0 0 C0 0.33 0 0.66 0 1 C-1.41199578 1.39222105 -2.82992764 1.76311059 -4.25 2.125 C-5.03890625 2.33382812 -5.8278125 2.54265625 -6.640625 2.7578125 C-9.4203071 3.04314411 -10.65887549 2.44977894 -13 1 C-8.59085217 -0.10228696 -4.51617599 -0.07654536 0 0 Z " fill="#5E5E5E" transform="translate(164,208)"/>
</svg>
